<svg width="22" height="30" viewBox="0 0 22 30" fill="none" xmlns="http://www.w3.org/2000/svg"><path d="M19.977 10.989a8.989 8.989 0 1 0-15.22 6.487s4.831 4.794 5.865 10.614a.203.203 0 0 0 .327.117.203.203 0 0 0 .07-.117c1.093-5.82 6.24-10.614 6.24-10.614a8.989 8.989 0 0 0 2.718-6.487z" fill="#FF6C64"/><path fill-rule="evenodd" clip-rule="evenodd" d="M4.757 17.476a8.99 8.99 0 1 1 15.22-6.487 8.987 8.987 0 0 1-2.719 6.487s-3.901 3.634-5.632 8.416c-.114.315-.218.635-.312.96a13.74 13.74 0 0 0-.28 1.157l-.001.008-.014.073a.203.203 0 0 1-.327.117.203.203 0 0 1-.07-.117 17.66 17.66 0 0 0-.014-.077v-.003a13.991 13.991 0 0 0-.267-1.165 15.85 15.85 0 0 0-.297-.966c-1.631-4.776-5.287-8.403-5.287-8.403zm13.524 1.097l-.006.006-.034.033a19.998 19.998 0 0 0-.702.722 25.83 25.83 0 0 0-1.784 2.158c-1.362 1.843-2.775 4.283-3.262 6.875l-.002.01a1.702 1.702 0 0 1-3.341 0l-.003-.012-.002-.013c-.463-2.608-1.798-5.055-3.076-6.896a25.563 25.563 0 0 0-1.674-2.157 19.443 19.443 0 0 0-.658-.72l-.032-.033a10.488 10.488 0 1 1 17.772-7.562 10.488 10.488 0 0 1-3.172 7.567l-.012.011-.01.01h-.001z" fill="#fff"/></svg>